<svg width="130" height="141" viewBox="0 0 130 141" fill="none" xmlns="http://www.w3.org/2000/svg">
<path d="M10.9804 113.304C10.9804 112.968 10.8364 112.824 10.5004 112.824H6.29238V110.52H10.1004C10.4364 110.52 10.5804 110.376 10.5804 110.04V108.888C10.5804 108.552 10.4364 108.408 10.1004 108.408H6.29238V106.472H10.3564C10.6924 106.472 10.8364 106.328 10.8364 105.992V104.792C10.8364 104.456 10.6924 104.312 10.3564 104.312H3.89238C3.55638 104.312 3.41238 104.456 3.41238 104.792V114.52C3.41238 114.856 3.55638 115 3.89238 115H10.5004C10.8364 115 10.9804 114.856 10.9804 114.52V113.304ZM16.0939 115.192C17.0059 115.192 17.6619 115.064 18.2059 114.92C18.5579 114.824 18.6859 114.632 18.6539 114.296L18.5419 113.368C18.5099 113.032 18.3179 112.936 17.9819 113.016C17.5659 113.112 17.0699 113.208 16.5259 113.208C15.3739 113.208 14.6219 112.744 14.6219 110.904C14.6219 109.128 15.3259 108.632 16.4779 108.632C16.9899 108.632 17.4219 108.712 17.7259 108.792C18.0459 108.872 18.2219 108.776 18.2859 108.456L18.4779 107.4C18.5419 107.08 18.4299 106.888 18.1099 106.808C17.5659 106.664 16.8779 106.568 16.1739 106.568C13.8219 106.568 11.8859 107.72 11.8859 110.888C11.8859 113.944 13.8539 115.192 16.0939 115.192ZM23.1165 115.192C25.7085 115.192 27.1005 114.04 27.1005 110.872C27.1005 107.672 25.7885 106.568 23.1965 106.568C20.7165 106.568 19.2925 107.704 19.2925 110.888C19.2925 114.072 20.6365 115.192 23.1165 115.192ZM23.1965 108.6C23.9005 108.6 24.4285 108.952 24.4285 110.888C24.4285 112.696 23.9005 113.176 23.1805 113.176C22.4925 113.176 21.9485 112.696 21.9485 110.888C21.9485 108.952 22.4925 108.6 23.1965 108.6ZM28.3461 114.52C28.3461 114.856 28.4901 115 28.8261 115H30.6181C30.9541 115 31.0981 114.856 31.0981 114.52V108.744C31.4501 108.584 31.9141 108.504 32.2981 108.504C32.8261 108.504 33.2261 108.76 33.2261 109.672V114.52C33.2261 114.856 33.3701 115 33.7061 115H35.4981C35.8341 115 35.9781 114.856 35.9781 114.52V109.48C35.9781 107 34.3621 106.536 32.6341 106.536C30.9221 106.536 29.2581 107.112 28.8101 107.288C28.4901 107.416 28.3461 107.624 28.3461 107.96V114.52ZM41.0071 115.192C43.5991 115.192 44.9911 114.04 44.9911 110.872C44.9911 107.672 43.6791 106.568 41.0871 106.568C38.6071 106.568 37.1831 107.704 37.1831 110.888C37.1831 114.072 38.5271 115.192 41.0071 115.192ZM41.0871 108.6C41.7911 108.6 42.3191 108.952 42.3191 110.888C42.3191 112.696 41.7911 113.176 41.0711 113.176C40.3831 113.176 39.8391 112.696 39.8391 110.888C39.8391 108.952 40.3831 108.6 41.0871 108.6ZM46.2368 114.52C46.2368 114.856 46.3808 115 46.7168 115H48.5088C48.8448 115 48.9888 114.856 48.9888 114.52V108.792C49.3408 108.632 49.6927 108.552 50.0768 108.552C50.6048 108.552 51.0368 108.776 51.0368 109.704V114.52C51.0368 114.856 51.1808 115 51.5168 115H53.2608C53.5968 115 53.7408 114.856 53.7408 114.52V109.48C53.7408 109.256 53.7248 109.032 53.6927 108.824C54.1248 108.632 54.5248 108.552 54.8767 108.552C55.4048 108.552 55.7888 108.84 55.7888 109.704V114.52C55.7888 114.856 55.9328 115 56.2688 115H58.0448C58.3808 115 58.5248 114.856 58.5248 114.52V109.48C58.5248 107.224 57.1488 106.536 55.4528 106.536C54.3488 106.536 53.4368 106.776 52.7008 107.272C52.1088 106.632 51.3088 106.536 50.4288 106.536C48.7488 106.536 47.1648 107.16 46.7168 107.336C46.3968 107.464 46.2368 107.688 46.2368 108.024V114.52ZM62.77 107.176C62.77 106.84 62.626 106.696 62.29 106.696H60.434C60.098 106.696 59.954 106.84 59.954 107.176V114.52C59.954 114.856 60.098 115 60.434 115H62.29C62.626 115 62.77 114.856 62.77 114.52V107.176ZM59.954 105.368C59.954 105.704 60.098 105.848 60.434 105.848H62.29C62.626 105.848 62.77 105.704 62.77 105.368V103.672C62.77 103.336 62.626 103.192 62.29 103.192H60.434C60.098 103.192 59.954 103.336 59.954 103.672V105.368ZM71.0048 109.72C71.0048 107.272 69.5328 106.552 67.7568 106.552C66.7008 106.552 65.6288 106.776 64.8928 107.032C64.5728 107.144 64.4448 107.352 64.5247 107.672L64.7488 108.568C64.8288 108.888 65.0208 108.968 65.2928 108.904C65.6288 108.824 66.3488 108.68 67.0688 108.68C67.7888 108.68 68.2528 108.856 68.2528 109.752V110.28C67.7568 110.136 67.2288 110.088 66.7008 110.088C65.1488 110.088 63.6928 110.744 63.6928 112.696C63.6928 114.744 65.5008 115.24 67.3888 115.24C68.7648 115.24 69.9488 114.952 70.5248 114.76C70.8608 114.648 71.0048 114.44 71.0048 114.104V109.72ZM66.3328 112.632C66.3488 111.864 66.8768 111.576 67.4848 111.576C67.7408 111.576 68.0128 111.624 68.2528 111.72V113.432C68.0128 113.512 67.7248 113.544 67.4688 113.544C66.8928 113.544 66.3328 113.352 66.3328 112.632ZM75.4555 114.52C75.4555 114.856 75.5995 115 75.9355 115H77.7275C78.0635 115 78.2075 114.856 78.2075 114.52V108.744C78.5595 108.584 79.0235 108.504 79.4075 108.504C79.9355 108.504 80.3355 108.76 80.3355 109.672V114.52C80.3355 114.856 80.4795 115 80.8155 115H82.6075C82.9435 115 83.0875 114.856 83.0875 114.52V109.48C83.0875 107 81.4715 106.536 79.7435 106.536C78.0315 106.536 76.3675 107.112 75.9195 107.288C75.5995 107.416 75.4555 107.624 75.4555 107.96V114.52ZM91.3485 109.72C91.3485 107.272 89.8765 106.552 88.1005 106.552C87.0445 106.552 85.9725 106.776 85.2365 107.032C84.9165 107.144 84.7885 107.352 84.8685 107.672L85.0925 108.568C85.1725 108.888 85.3645 108.968 85.6365 108.904C85.9725 108.824 86.6925 108.68 87.4125 108.68C88.1325 108.68 88.5965 108.856 88.5965 109.752V110.28C88.1005 110.136 87.5725 110.088 87.0445 110.088C85.4925 110.088 84.0365 110.744 84.0365 112.696C84.0365 114.744 85.8445 115.24 87.7325 115.24C89.1085 115.24 90.2925 114.952 90.8685 114.76C91.2045 114.648 91.3485 114.44 91.3485 114.104V109.72ZM86.6765 112.632C86.6925 111.864 87.2205 111.576 87.8285 111.576C88.0845 111.576 88.3565 111.624 88.5965 111.72V113.432C88.3565 113.512 88.0685 113.544 87.8125 113.544C87.2365 113.544 86.6765 113.352 86.6765 112.632ZM98.6153 104.184C98.6153 103.848 98.4713 103.72 98.1353 103.736L96.2793 103.848C95.9433 103.864 95.7993 104.024 95.7993 104.36V114.52C95.7993 114.856 95.9433 115 96.2793 115H98.1353C98.4713 115 98.6153 114.856 98.6153 114.52V108.904C99.0312 108.776 99.4793 108.68 99.8633 108.68C100.327 108.68 100.679 108.84 100.679 109.736V114.52C100.679 114.856 100.823 115 101.159 115H103.111C103.447 115 103.591 114.856 103.591 114.52V109.352C103.591 107.32 102.503 106.52 100.743 106.52C100.103 106.52 99.3993 106.6 98.6153 106.824V104.184ZM108.617 115.192C111.209 115.192 112.601 114.04 112.601 110.872C112.601 107.672 111.289 106.568 108.697 106.568C106.217 106.568 104.793 107.704 104.793 110.888C104.793 114.072 106.137 115.192 108.617 115.192ZM108.697 108.6C109.401 108.6 109.929 108.952 109.929 110.888C109.929 112.696 109.401 113.176 108.681 113.176C107.993 113.176 107.449 112.696 107.449 110.888C107.449 108.952 107.993 108.6 108.697 108.6ZM116.614 108.952C117.03 108.744 117.494 108.664 117.974 108.664C118.262 108.664 118.55 108.696 118.678 108.712C119.014 108.76 119.126 108.648 119.174 108.312L119.35 107.16C119.398 106.824 119.254 106.632 118.966 106.584C118.87 106.568 118.71 106.552 118.534 106.552C117.67 106.552 116.87 106.904 116.358 107.592L116.326 107.176C116.294 106.84 116.166 106.696 115.83 106.696H114.326C113.99 106.696 113.846 106.84 113.846 107.176V114.52C113.846 114.856 113.99 115 114.326 115H116.134C116.47 115 116.614 114.856 116.614 114.52V108.952ZM126.802 109.72C126.802 107.272 125.33 106.552 123.554 106.552C122.498 106.552 121.426 106.776 120.69 107.032C120.37 107.144 120.242 107.352 120.322 107.672L120.546 108.568C120.626 108.888 120.818 108.968 121.09 108.904C121.426 108.824 122.146 108.68 122.866 108.68C123.586 108.68 124.05 108.856 124.05 109.752V110.28C123.554 110.136 123.026 110.088 122.498 110.088C120.946 110.088 119.49 110.744 119.49 112.696C119.49 114.744 121.298 115.24 123.186 115.24C124.562 115.24 125.746 114.952 126.322 114.76C126.658 114.648 126.802 114.44 126.802 114.104V109.72ZM122.13 112.632C122.146 111.864 122.674 111.576 123.282 111.576C123.538 111.576 123.81 111.624 124.05 111.72V113.432C123.81 113.512 123.522 113.544 123.266 113.544C122.69 113.544 122.13 113.352 122.13 112.632ZM41.1158 125.28C41.1158 124.944 40.9718 124.8 40.6358 124.8H38.8278C38.4918 124.8 38.3478 124.944 38.3478 125.28V127.696C37.9638 127.616 37.5798 127.584 37.2438 127.584C34.2518 127.584 33.3398 129.856 33.3398 132C33.3398 135.344 35.2758 136.16 37.3558 136.16C38.6998 136.16 39.8678 136 40.6678 135.776C41.0038 135.68 41.1158 135.488 41.1158 135.152V125.28ZM38.3478 134.096C38.0918 134.16 37.8518 134.192 37.6598 134.192C36.7158 134.192 36.1398 133.52 36.1398 132.016C36.1398 130.64 36.6198 129.536 37.6118 129.536C37.8198 129.536 38.0758 129.552 38.3478 129.616V134.096ZM49.8426 130.848C49.8426 129.056 48.8986 127.568 46.3386 127.568C43.5226 127.568 42.3706 129.52 42.3706 131.648C42.3706 135.088 44.1946 136.208 46.6426 136.208C47.5226 136.208 48.4506 136.032 49.1066 135.856C49.4426 135.76 49.6026 135.568 49.5706 135.232L49.4586 134.256C49.4266 133.92 49.2506 133.84 48.9306 133.936C48.3546 134.096 47.6506 134.176 47.0426 134.176C45.8906 134.176 45.0746 133.744 45.0746 132.144H49.1866C49.5226 132.144 49.6986 132.016 49.7626 131.696C49.7786 131.6 49.8426 131.296 49.8426 130.848ZM46.3866 129.392C47.2506 129.392 47.5226 130.064 47.5226 130.784H45.1546C45.1546 130.288 45.3626 129.392 46.3866 129.392ZM54.0493 138.8C54.0493 139.136 54.1933 139.28 54.5293 139.28H56.3373C56.6733 139.28 56.8173 139.136 56.8173 138.8V136.096C57.1853 136.16 57.5693 136.192 57.9053 136.192C61.0253 136.192 61.9373 134.096 61.9373 131.744C61.9373 128.4 59.9533 127.568 57.8893 127.568C56.4813 127.568 55.1373 127.888 54.5613 128.064C54.2093 128.176 54.0493 128.368 54.0493 128.704V138.8ZM56.8173 129.712C57.1373 129.632 57.4413 129.616 57.6813 129.616C58.6893 129.616 59.1533 130.368 59.1533 131.728C59.1533 133.184 58.6413 134.096 57.5533 134.096C57.3293 134.096 57.0893 134.064 56.8173 134V129.712ZM65.9419 128.176C65.9419 127.84 65.7979 127.696 65.4619 127.696H63.6059C63.2699 127.696 63.1259 127.84 63.1259 128.176V135.52C63.1259 135.856 63.2699 136 63.6059 136H65.4619C65.7979 136 65.9419 135.856 65.9419 135.52V128.176ZM63.1259 126.368C63.1259 126.704 63.2699 126.848 63.6059 126.848H65.4619C65.7979 126.848 65.9419 126.704 65.9419 126.368V124.672C65.9419 124.336 65.7979 124.192 65.4619 124.192H63.6059C63.2699 124.192 63.1259 124.336 63.1259 124.672V126.368ZM67.4086 135.52C67.4086 135.856 67.5526 136 67.8886 136H69.6806C70.0166 136 70.1606 135.856 70.1606 135.52V129.744C70.5126 129.584 70.9766 129.504 71.3606 129.504C71.8886 129.504 72.2886 129.76 72.2886 130.672V135.52C72.2886 135.856 72.4326 136 72.7686 136H74.5606C74.8966 136 75.0406 135.856 75.0406 135.52V130.48C75.0406 128 73.4246 127.536 71.6966 127.536C69.9846 127.536 68.3206 128.112 67.8726 128.288C67.5526 128.416 67.4086 128.624 67.4086 128.96V135.52ZM77.3336 133.264C77.3336 134.672 77.3336 136.192 80.0376 136.192C80.3096 136.192 80.9496 136.16 81.6216 135.936C81.9416 135.824 82.0536 135.616 81.9896 135.28L81.8616 134.48C81.8136 134.144 81.6376 134.08 81.3336 134.128C81.3336 134.128 81.1416 134.16 80.9336 134.16C80.4696 134.16 80.1336 133.936 80.1336 133.232V129.568H81.7336C82.0696 129.568 82.2296 129.424 82.2456 129.088L82.3256 128.176C82.3416 127.84 82.2136 127.696 81.8776 127.696H80.1496V126.176C80.1496 125.84 80.0056 125.712 79.6696 125.744L77.8616 125.888C77.5256 125.92 77.3816 126.08 77.3816 126.416V127.712H76.4696C76.1336 127.712 75.9896 127.856 75.9896 128.192V129.088C75.9896 129.424 76.1336 129.568 76.4696 129.568H77.3336V133.264ZM90.036 130.72C90.036 128.272 88.564 127.552 86.788 127.552C85.732 127.552 84.66 127.776 83.924 128.032C83.604 128.144 83.476 128.352 83.556 128.672L83.78 129.568C83.86 129.888 84.052 129.968 84.324 129.904C84.66 129.824 85.38 129.68 86.1 129.68C86.82 129.68 87.284 129.856 87.284 130.752V131.28C86.788 131.136 86.26 131.088 85.732 131.088C84.18 131.088 82.724 131.744 82.724 133.696C82.724 135.744 84.532 136.24 86.42 136.24C87.796 136.24 88.98 135.952 89.556 135.76C89.892 135.648 90.036 135.44 90.036 135.104V130.72ZM85.364 133.632C85.38 132.864 85.908 132.576 86.516 132.576C86.772 132.576 87.044 132.624 87.284 132.72V134.432C87.044 134.512 86.756 134.544 86.5 134.544C85.924 134.544 85.364 134.352 85.364 133.632ZM94.286 129.952C94.702 129.744 95.166 129.664 95.646 129.664C95.934 129.664 96.222 129.696 96.35 129.712C96.686 129.76 96.798 129.648 96.846 129.312L97.022 128.16C97.07 127.824 96.926 127.632 96.638 127.584C96.542 127.568 96.382 127.552 96.206 127.552C95.342 127.552 94.542 127.904 94.03 128.592L93.998 128.176C93.966 127.84 93.838 127.696 93.502 127.696H91.998C91.662 127.696 91.518 127.84 91.518 128.176V135.52C91.518 135.856 91.662 136 91.998 136H93.806C94.142 136 94.286 135.856 94.286 135.52V129.952Z" fill="white"/>
<g clip-path="url(#clip0_630_451)">
<path d="M98.3598 37.264C95.3788 38.4444 90.528 39.292 84.8495 39.5534" stroke="#37BEC8" stroke-width="2.5" stroke-linecap="round" stroke-linejoin="round"/>
<path d="M101.188 31.592C102.26 32.2575 102.851 32.9863 102.851 33.7468V42.9043C102.851 45.7482 94.6662 48.101 84.0525 48.4654" stroke="#37BEC8" stroke-width="3" stroke-linecap="round" stroke-linejoin="round"/>
<path d="M98.5898 23.7812C95.1719 25.1992 89.0643 26.1736 82.0294 26.2449" stroke="#37BEC8" stroke-width="2.5" stroke-linecap="round" stroke-linejoin="round"/>
<path d="M101.142 18.0934C102.237 18.7667 102.851 19.5035 102.851 20.2798V29.4374C102.851 32.2179 95.0187 34.5311 84.7499 34.9747" stroke="#37BEC8" stroke-width="3" stroke-linecap="round" stroke-linejoin="round"/>
<path d="M79.6308 21.5631C80.1289 21.571 80.627 21.5789 81.1328 21.5789C93.1335 21.5789 102.858 19.0677 102.858 15.9624V6.80483C102.858 3.70742 93.1335 1.18829 81.1328 1.18829C69.1321 1.18829 59.4074 3.6995 59.4074 6.80483V12.865" stroke="#37BEC8" stroke-width="3" stroke-linecap="round" stroke-linejoin="round"/>
<path d="M98.4518 9.13383C94.8577 10.5835 88.4436 11.55 81.1328 11.55C73.822 11.55 67.247 10.5598 63.6835 9.0863" stroke="#37BEC8" stroke-width="2.5" stroke-linecap="round" stroke-linejoin="round"/>
<path d="M63.5763 17.1348H54.8861C45.6442 17.1348 38.1495 27.3539 38.1495 39.9733C38.1495 52.5927 45.6442 62.8118 54.8861 62.8118H63.5763C72.8182 62.8118 80.3128 52.5848 80.3128 39.9733C80.3128 27.3618 72.8182 17.1348 63.5763 17.1348V17.1348Z" stroke="#37BEC8" stroke-width="3" stroke-linecap="round" stroke-linejoin="round"/>
<path d="M69.339 46.287C69.339 44.465 68.9099 43.0311 68.0593 41.9696C67.2087 40.9081 65.9059 40.0208 64.1433 39.3158C62.7793 38.7375 61.8367 38.1196 61.3156 37.4779C60.7945 36.8363 60.5263 35.9887 60.5263 34.943C60.5263 33.7943 60.7792 32.8833 61.2849 32.2258C61.7907 31.5683 62.557 31.2356 63.5686 31.2356C64.5265 31.2356 65.2698 31.6634 65.8139 32.511C66.358 33.3586 66.6262 34.4677 66.6262 35.8381C66.6416 36.6937 67.1933 37.3908 67.8907 37.3908C68.588 37.3908 69.1398 36.7016 69.1475 35.8381H69.1551C69.1551 33.7626 68.7566 32.107 67.9597 30.8633C67.5612 30.2533 67.086 29.7621 66.5343 29.3898V25.0645C66.5343 24.3595 66.0745 23.7891 65.5151 23.7891C64.9556 23.7891 64.4959 24.3595 64.4959 25.0645V28.6372C63.8062 28.5343 63.1241 28.5739 62.7869 28.6056V25.0645C62.7869 24.3595 62.3271 23.7891 61.7677 23.7891C61.2083 23.7891 60.7485 24.3595 60.7485 25.0645V29.2631C60.1508 29.6037 59.6297 30.0632 59.2005 30.6494C58.3806 31.7663 57.9744 33.216 57.9744 34.9905C57.9744 36.765 58.4189 38.286 59.3078 39.3792C60.1968 40.4724 61.5072 41.3517 63.2467 42.0092C64.5112 42.5479 65.4154 43.1579 65.9672 43.8391C66.519 44.5204 66.7872 45.3522 66.7872 46.3186C66.7872 47.4911 66.473 48.41 65.8523 49.0675C65.2315 49.725 64.3579 50.0577 63.2467 50.0577C62.2812 50.0577 61.4612 49.7092 60.7945 49.0041C60.1278 48.2991 59.7753 46.9445 59.7753 45.2888C59.7753 44.4333 59.2235 43.7441 58.5415 43.7441C57.8595 43.7441 57.3077 44.4333 57.3077 45.2888V45.5423C57.277 47.7842 57.7292 49.4794 58.6794 50.636C59.2005 51.2777 59.8136 51.753 60.5033 52.0936V55.7376C60.5033 56.4347 60.9554 57.0051 61.5148 57.0051C62.0743 57.0051 62.5264 56.4347 62.5264 55.7376V52.664C62.9172 52.6798 63.7755 52.7036 64.2506 52.6481V55.7376C64.2506 56.4347 64.7028 57.0051 65.2622 57.0051C65.8216 57.0051 66.2737 56.4347 66.2737 55.7376V52.0619C66.9404 51.7292 67.5228 51.2856 67.998 50.6994C68.8869 49.6062 69.3314 48.1327 69.3314 46.287H69.339Z" fill="#37BEC8"/>
<path d="M54.227 58.9142C49.767 54.8107 46.8396 47.8554 46.8396 39.9653C46.8396 32.0753 49.9662 24.6684 54.6715 20.6283" stroke="#37BEC8" stroke-width="2.5" stroke-linecap="round" stroke-linejoin="round"/>
</g>
<defs>
<clipPath id="clip0_630_451">
<rect width="67" height="64" fill="white" transform="translate(37)"/>
</clipPath>
</defs>
</svg>
