<svg width="119" height="153" viewBox="0 0 119 153" fill="none" xmlns="http://www.w3.org/2000/svg">
<path d="M38.9033 118.456C39.2393 118.456 39.3833 118.312 39.3833 117.976V116.792C39.3833 116.456 39.2393 116.312 38.9033 116.312H32.4393C32.1033 116.312 31.9593 116.456 31.9593 116.792V126.52C31.9593 126.856 32.1033 127 32.4393 127H34.3593C34.6953 127 34.8393 126.856 34.8393 126.52V122.52H38.5193C38.8553 122.52 38.9993 122.376 38.9993 122.04V120.888C38.9993 120.552 38.8553 120.408 38.5193 120.408H34.8393V118.456H38.9033ZM46.8641 121.72C46.8641 119.272 45.3921 118.552 43.6161 118.552C42.5601 118.552 41.4881 118.776 40.7521 119.032C40.4321 119.144 40.3041 119.352 40.3841 119.672L40.6081 120.568C40.6881 120.888 40.8801 120.968 41.1521 120.904C41.4881 120.824 42.2081 120.68 42.9281 120.68C43.6481 120.68 44.1121 120.856 44.1121 121.752V122.28C43.6161 122.136 43.0881 122.088 42.5601 122.088C41.0081 122.088 39.5521 122.744 39.5521 124.696C39.5521 126.744 41.3601 127.24 43.2481 127.24C44.6241 127.24 45.8081 126.952 46.3841 126.76C46.7201 126.648 46.8641 126.44 46.8641 126.104V121.72ZM42.1921 124.632C42.2081 123.864 42.7361 123.576 43.3441 123.576C43.6001 123.576 43.8721 123.624 44.1121 123.72V125.432C43.8721 125.512 43.5841 125.544 43.3281 125.544C42.7521 125.544 42.1921 125.352 42.1921 124.632ZM45.4561 116.648C45.7761 116.52 45.8401 116.344 45.7121 116.04L45.1201 114.76C44.9921 114.456 44.8001 114.408 44.5121 114.568L41.9841 116.088C41.6961 116.248 41.6321 116.456 41.7601 116.776L42.0321 117.432C42.1761 117.752 42.3521 117.832 42.6721 117.704L45.4561 116.648ZM52.2501 127.192C53.1621 127.192 53.8181 127.064 54.3621 126.92C54.7141 126.824 54.8421 126.632 54.8101 126.296L54.6981 125.368C54.6661 125.032 54.4741 124.936 54.1381 125.016C53.7221 125.112 53.2261 125.208 52.6821 125.208C51.5301 125.208 50.7781 124.744 50.7781 122.904C50.7781 121.128 51.4821 120.632 52.6341 120.632C53.1461 120.632 53.5781 120.712 53.8821 120.792C54.2021 120.872 54.3781 120.776 54.4421 120.456L54.6341 119.4C54.6981 119.08 54.5861 118.888 54.2661 118.808C53.7221 118.664 53.0341 118.568 52.3301 118.568C49.9781 118.568 48.0421 119.72 48.0421 122.888C48.0421 125.944 50.0101 127.192 52.2501 127.192ZM58.7231 119.176C58.7231 118.84 58.5791 118.696 58.2431 118.696H56.3871C56.0511 118.696 55.9071 118.84 55.9071 119.176V126.52C55.9071 126.856 56.0511 127 56.3871 127H58.2431C58.5791 127 58.7231 126.856 58.7231 126.52V119.176ZM55.9071 117.368C55.9071 117.704 56.0511 117.848 56.3871 117.848H58.2431C58.5791 117.848 58.7231 117.704 58.7231 117.368V115.672C58.7231 115.336 58.5791 115.192 58.2431 115.192H56.3871C56.0511 115.192 55.9071 115.336 55.9071 115.672V117.368ZM64.6859 125.448C64.6379 125.112 64.4779 125.032 64.1579 125.096C64.1579 125.096 63.9979 125.128 63.8539 125.128C63.3739 125.128 63.0219 124.92 63.0219 124.264V116.296C63.0219 115.96 62.8779 115.816 62.5419 115.816H60.6859C60.3499 115.816 60.2059 115.96 60.2059 116.296V124.408C60.2059 126.088 60.7819 127.192 62.6859 127.192C63.0379 127.192 63.6619 127.176 64.3499 126.92C64.7019 126.776 64.8139 126.552 64.7819 126.216L64.6859 125.448ZM75.8033 116.28C75.8033 115.944 75.6593 115.8 75.3233 115.8H73.5153C73.1793 115.8 73.0353 115.944 73.0353 116.28V118.696C72.6513 118.616 72.2673 118.584 71.9313 118.584C68.9393 118.584 68.0273 120.856 68.0273 123C68.0273 126.344 69.9633 127.16 72.0433 127.16C73.3873 127.16 74.5553 127 75.3553 126.776C75.6913 126.68 75.8033 126.488 75.8033 126.152V116.28ZM73.0353 125.096C72.7793 125.16 72.5393 125.192 72.3473 125.192C71.4033 125.192 70.8273 124.52 70.8273 123.016C70.8273 121.64 71.3073 120.536 72.2993 120.536C72.5073 120.536 72.7633 120.552 73.0353 120.616V125.096ZM84.5301 121.848C84.5301 120.056 83.5861 118.568 81.0261 118.568C78.2101 118.568 77.0581 120.52 77.0581 122.648C77.0581 126.088 78.8821 127.208 81.3301 127.208C82.2101 127.208 83.1381 127.032 83.7941 126.856C84.1301 126.76 84.2901 126.568 84.2581 126.232L84.1461 125.256C84.1141 124.92 83.9381 124.84 83.6181 124.936C83.0421 125.096 82.3381 125.176 81.7301 125.176C80.5781 125.176 79.7621 124.744 79.7621 123.144H83.8741C84.2101 123.144 84.3861 123.016 84.4501 122.696C84.4661 122.6 84.5301 122.296 84.5301 121.848ZM81.0741 120.392C81.9381 120.392 82.2101 121.064 82.2101 121.784H79.8421C79.8421 121.288 80.0501 120.392 81.0741 120.392ZM42.4735 142.72C42.4735 140.272 41.0015 139.552 39.2255 139.552C38.1695 139.552 37.0975 139.776 36.3615 140.032C36.0415 140.144 35.9135 140.352 35.9935 140.672L36.2175 141.568C36.2975 141.888 36.4895 141.968 36.7615 141.904C37.0975 141.824 37.8175 141.68 38.5375 141.68C39.2575 141.68 39.7215 141.856 39.7215 142.752V143.28C39.2255 143.136 38.6975 143.088 38.1695 143.088C36.6175 143.088 35.1615 143.744 35.1615 145.696C35.1615 147.744 36.9695 148.24 38.8575 148.24C40.2335 148.24 41.4175 147.952 41.9935 147.76C42.3295 147.648 42.4735 147.44 42.4735 147.104V142.72ZM37.8015 145.632C37.8175 144.864 38.3455 144.576 38.9535 144.576C39.2095 144.576 39.4815 144.624 39.7215 144.72V146.432C39.4815 146.512 39.1935 146.544 38.9375 146.544C38.3615 146.544 37.8015 146.352 37.8015 145.632ZM43.9555 150.8C43.9555 151.136 44.0995 151.28 44.4355 151.28H46.2435C46.5795 151.28 46.7235 151.136 46.7235 150.8V148.096C47.0915 148.16 47.4755 148.192 47.8115 148.192C50.9315 148.192 51.8435 146.096 51.8435 143.744C51.8435 140.4 49.8595 139.568 47.7955 139.568C46.3875 139.568 45.0435 139.888 44.4675 140.064C44.1155 140.176 43.9555 140.368 43.9555 140.704V150.8ZM46.7235 141.712C47.0435 141.632 47.3475 141.616 47.5875 141.616C48.5955 141.616 49.0595 142.368 49.0595 143.728C49.0595 145.184 48.5475 146.096 47.4595 146.096C47.2355 146.096 46.9955 146.064 46.7235 146V141.712ZM57.5921 146.448C57.5441 146.112 57.3841 146.032 57.0641 146.096C57.0641 146.096 56.9041 146.128 56.7601 146.128C56.2801 146.128 55.9281 145.92 55.9281 145.264V137.296C55.9281 136.96 55.7841 136.816 55.4481 136.816H53.5921C53.2561 136.816 53.1121 136.96 53.1121 137.296V145.408C53.1121 147.088 53.6881 148.192 55.5921 148.192C55.9441 148.192 56.5681 148.176 57.2561 147.92C57.6081 147.776 57.7201 147.552 57.6881 147.216L57.5921 146.448ZM61.1919 140.176C61.1919 139.84 61.0479 139.696 60.7119 139.696H58.8559C58.5199 139.696 58.3759 139.84 58.3759 140.176V147.52C58.3759 147.856 58.5199 148 58.8559 148H60.7119C61.0479 148 61.1919 147.856 61.1919 147.52V140.176ZM58.3759 138.368C58.3759 138.704 58.5199 138.848 58.8559 138.848H60.7119C61.0479 138.848 61.1919 138.704 61.1919 138.368V136.672C61.1919 136.336 61.0479 136.192 60.7119 136.192H58.8559C58.5199 136.192 58.3759 136.336 58.3759 136.672V138.368ZM66.5626 148.192C67.4746 148.192 68.1306 148.064 68.6746 147.92C69.0266 147.824 69.1546 147.632 69.1226 147.296L69.0106 146.368C68.9786 146.032 68.7866 145.936 68.4506 146.016C68.0346 146.112 67.5386 146.208 66.9946 146.208C65.8426 146.208 65.0906 145.744 65.0906 143.904C65.0906 142.128 65.7946 141.632 66.9466 141.632C67.4586 141.632 67.8906 141.712 68.1946 141.792C68.5146 141.872 68.6906 141.776 68.7546 141.456L68.9466 140.4C69.0106 140.08 68.8986 139.888 68.5786 139.808C68.0346 139.664 67.3466 139.568 66.6426 139.568C64.2906 139.568 62.3546 140.72 62.3546 143.888C62.3546 146.944 64.3226 148.192 66.5626 148.192ZM76.9423 142.72C76.9423 140.272 75.4703 139.552 73.6943 139.552C72.6383 139.552 71.5663 139.776 70.8303 140.032C70.5103 140.144 70.3823 140.352 70.4622 140.672L70.6863 141.568C70.7663 141.888 70.9583 141.968 71.2303 141.904C71.5663 141.824 72.2863 141.68 73.0063 141.68C73.7263 141.68 74.1903 141.856 74.1903 142.752V143.28C73.6943 143.136 73.1663 143.088 72.6383 143.088C71.0863 143.088 69.6303 143.744 69.6303 145.696C69.6303 147.744 71.4383 148.24 73.3263 148.24C74.7023 148.24 75.8863 147.952 76.4623 147.76C76.7983 147.648 76.9423 147.44 76.9423 147.104V142.72ZM72.2703 145.632C72.2863 144.864 72.8143 144.576 73.4223 144.576C73.6783 144.576 73.9503 144.624 74.1903 144.72V146.432C73.9503 146.512 73.6623 146.544 73.4062 146.544C72.8303 146.544 72.2703 146.352 72.2703 145.632ZM81.1923 141.952C81.6083 141.744 82.0723 141.664 82.5523 141.664C82.8403 141.664 83.1283 141.696 83.2563 141.712C83.5923 141.76 83.7043 141.648 83.7523 141.312L83.9283 140.16C83.9763 139.824 83.8323 139.632 83.5443 139.584C83.4483 139.568 83.2883 139.552 83.1123 139.552C82.2483 139.552 81.4483 139.904 80.9363 140.592L80.9043 140.176C80.8723 139.84 80.7443 139.696 80.4083 139.696H78.9043C78.5683 139.696 78.4243 139.84 78.4243 140.176V147.52C78.4243 147.856 78.5683 148 78.9043 148H80.7123C81.0483 148 81.1923 147.856 81.1923 147.52V141.952Z" fill="white"/>
<g clip-path="url(#clip0_630_450)">
<path d="M48.8734 46.1632L40.962 38.3548L42.663 24.8073C42.663 24.8073 34.7278 17.9125 29.0158 13.0166C23.2959 8.12074 25.6772 1.65539 25.6772 1.65539C25.6772 1.65539 32.2199 -0.694933 37.1883 4.95053C42.1566 10.596 49.1424 18.4278 49.1424 18.4278L62.8687 16.749L70.78 24.5574L48.8892 46.1632H48.8734Z" stroke="#37BEC8" stroke-width="3" stroke-linecap="round" stroke-linejoin="round"/>
<path d="M61.0253 21.1841L45.4636 36.5432" stroke="#37BEC8" stroke-width="2.5" stroke-linecap="round" stroke-linejoin="round"/>
<path d="M69.087 26.2206C76.7532 33.7869 83.6994 33.3574 83.6994 33.3574L71.8798 45.0232" stroke="#37BEC8" stroke-width="3" stroke-linecap="round" stroke-linejoin="round"/>
<path d="M31.3022 9.71367C32.7047 9.71367 33.8417 8.59147 33.8417 7.20718C33.8417 5.82288 32.7047 4.70068 31.3022 4.70068C29.8996 4.70068 28.7626 5.82288 28.7626 7.20718C28.7626 8.59147 29.8996 9.71367 31.3022 9.71367Z" fill="#37BEC8"/>
<path d="M55.78 67.4723C57.5627 67.4723 59.0079 66.046 59.0079 64.2865C59.0079 62.527 57.5627 61.1006 55.78 61.1006C53.9973 61.1006 52.5522 62.527 52.5522 64.2865C52.5522 66.046 53.9973 67.4723 55.78 67.4723Z" fill="#37BEC8"/>
<path d="M60.3607 55.9861C59.6013 56.0095 59.5063 56.0252 58.7389 56.0252C44.6645 56.0252 33.2563 52.0585 33.2563 47.1705C33.2563 45.1559 35.2025 43.2897 38.4699 41.8061" stroke="#37BEC8" stroke-width="3" stroke-linecap="round" stroke-linejoin="round"/>
<path d="M80.5269 42.5714C82.8687 43.9066 84.2136 45.4839 84.2136 47.1627C84.2136 50.044 80.2579 52.5973 74.1345 54.2137" stroke="#37BEC8" stroke-width="3" stroke-linecap="round" stroke-linejoin="round"/>
<path d="M80.3687 74.3436V52.324" stroke="#37BEC8" stroke-width="3" stroke-linecap="round" stroke-linejoin="round"/>
<path d="M37.0934 52.324V80.3092C37.0934 84.4633 46.7769 87.8287 58.731 87.8287C69.0316 87.8287 77.6551 85.33 79.8386 81.9802" stroke="#37BEC8" stroke-width="3" stroke-linecap="round" stroke-linejoin="round"/>
<path d="M84.6091 62.8341C89.4905 66.4572 92.7104 70.5722 92.8133 73.883C92.9715 79.3957 84.4193 80.606 73.7152 76.5925C65.7721 73.6175 58.8734 68.5967 55.78 63.9507" stroke="#37BEC8" stroke-width="3" stroke-linecap="round" stroke-linejoin="round"/>
<path d="M77.7579 46.5068C77.7579 47.5921 75.9937 48.5838 73.0744 49.3412C71.6187 49.716 70.5823 50.9888 70.4794 52.4724C70.3212 54.7602 70.3924 57.2745 70.788 59.2344C70.8275 59.4297 70.8592 59.6405 70.9066 59.8201L71.4842 62.0845C72.1804 64.8096 70.0997 67.4489 67.2516 67.4489C64.4035 67.4489 62.2357 64.6769 63.0664 61.9205L63.4778 60.5541C63.5886 60.1871 63.6756 59.8045 63.7626 59.414C64.1107 57.7899 64.2373 55.9705 64.2057 54.1902C64.1661 52.2694 62.5364 50.7545 60.5902 50.7936C59.981 50.8092 59.356 50.817 58.731 50.817C48.2247 50.817 39.7041 48.8805 39.7041 46.499" stroke="#37BEC8" stroke-width="2.5" stroke-linecap="round" stroke-linejoin="round"/>
</g>
<defs>
<clipPath id="clip0_630_450">
<rect width="70" height="89" fill="white" transform="translate(24)"/>
</clipPath>
</defs>
</svg>
