<svg width="130" height="127" viewBox="0 0 130 127" fill="none" xmlns="http://www.w3.org/2000/svg">
<path d="M15.2874 121.312C15.2874 121.648 15.4154 121.808 15.7354 121.856C16.5834 121.984 17.6714 122.08 18.5514 122.08C22.4074 122.08 23.2234 120.432 23.2234 118.656C23.2234 117.648 22.8074 116.656 21.5594 116.128C22.3114 115.6 22.5194 114.736 22.5194 114.064C22.5194 111.776 20.5514 111.216 18.4234 111.216C17.4314 111.216 16.1834 111.376 15.7354 111.44C15.4314 111.488 15.2874 111.648 15.2874 111.984V121.312ZM18.1514 117.296H18.7434C19.9274 117.296 20.4234 117.712 20.4234 118.592C20.4234 119.728 19.5434 119.904 18.8234 119.904C18.5674 119.904 18.3434 119.904 18.1514 119.872V117.296ZM18.0714 113.28C18.2634 113.248 18.4234 113.232 18.5674 113.232C19.3514 113.232 19.7514 113.568 19.7514 114.24C19.7514 115.232 19.0954 115.392 18.5034 115.392H18.0714V113.28ZM28.0071 122.192C30.5991 122.192 31.9911 121.04 31.9911 117.872C31.9911 114.672 30.6791 113.568 28.0871 113.568C25.6071 113.568 24.1831 114.704 24.1831 117.888C24.1831 121.072 25.5271 122.192 28.0071 122.192ZM28.0871 115.6C28.7911 115.6 29.3191 115.952 29.3191 117.888C29.3191 119.696 28.7911 120.176 28.0711 120.176C27.3831 120.176 26.8391 119.696 26.8391 117.888C26.8391 115.952 27.3831 115.6 28.0871 115.6ZM40.0048 116.72C40.0048 114.272 38.5328 113.552 36.7568 113.552C35.7008 113.552 34.6288 113.776 33.8928 114.032C33.5728 114.144 33.4448 114.352 33.5247 114.672L33.7488 115.568C33.8288 115.888 34.0208 115.968 34.2928 115.904C34.6288 115.824 35.3488 115.68 36.0688 115.68C36.7888 115.68 37.2528 115.856 37.2528 116.752V117.28C36.7568 117.136 36.2288 117.088 35.7008 117.088C34.1488 117.088 32.6928 117.744 32.6928 119.696C32.6928 121.744 34.5008 122.24 36.3888 122.24C37.7648 122.24 38.9488 121.952 39.5248 121.76C39.8608 121.648 40.0048 121.44 40.0048 121.104V116.72ZM35.3328 119.632C35.3488 118.864 35.8768 118.576 36.4848 118.576C36.7408 118.576 37.0128 118.624 37.2528 118.72V120.432C37.0128 120.512 36.7248 120.544 36.4688 120.544C35.8928 120.544 35.3328 120.352 35.3328 119.632ZM49.8635 113.2C50.4715 113.2 51.0955 113.36 51.5435 113.472C51.8475 113.552 52.0555 113.456 52.1195 113.136L52.3595 112.08C52.4235 111.76 52.2955 111.568 51.9595 111.472C51.3835 111.312 50.5995 111.12 49.6555 111.12C46.9675 111.12 44.2635 112.416 44.2635 116.624C44.2795 121.024 46.6955 122.192 49.5435 122.192C50.3275 122.192 51.2395 122.08 51.8155 121.984C52.1515 121.92 52.2795 121.76 52.2635 121.424L52.1995 120.32C52.1835 119.984 52.0395 119.856 51.7035 119.888C51.4155 119.92 50.6475 120 50.1195 120C48.5035 120 47.2075 119.392 47.2075 116.576C47.2075 113.984 48.3755 113.2 49.8635 113.2ZM56.8978 122.192C59.4898 122.192 60.8818 121.04 60.8818 117.872C60.8818 114.672 59.5698 113.568 56.9778 113.568C54.4978 113.568 53.0738 114.704 53.0738 117.888C53.0738 121.072 54.4178 122.192 56.8978 122.192ZM56.9778 115.6C57.6818 115.6 58.2098 115.952 58.2098 117.888C58.2098 119.696 57.6818 120.176 56.9618 120.176C56.2738 120.176 55.7298 119.696 55.7298 117.888C55.7298 115.952 56.2738 115.6 56.9778 115.6ZM64.8634 111.28C64.8634 110.944 64.7194 110.8 64.3834 110.8H62.5914C62.2554 110.8 62.1114 110.944 62.1114 111.28V121.088C62.1114 121.424 62.2554 121.632 62.5754 121.728C63.1674 121.904 64.4954 122.192 65.7914 122.192C68.8634 122.192 70.0634 120.432 70.0634 117.472C70.0634 114.544 68.5434 113.568 66.5914 113.568C66.0314 113.568 65.4394 113.648 64.8634 113.792V111.28ZM64.8634 115.808C65.2474 115.664 65.5834 115.616 65.9034 115.616C66.6714 115.616 67.2314 116.16 67.2314 117.792C67.2314 119.104 66.8634 120.112 65.4714 120.112C65.2474 120.112 65.0554 120.08 64.8634 120.048V115.808ZM78.4989 116.848C78.4989 115.056 77.5549 113.568 74.9949 113.568C72.1789 113.568 71.0269 115.52 71.0269 117.648C71.0269 121.088 72.8509 122.208 75.2989 122.208C76.1789 122.208 77.1069 122.032 77.7629 121.856C78.0989 121.76 78.2589 121.568 78.2269 121.232L78.1149 120.256C78.0829 119.92 77.9069 119.84 77.5869 119.936C77.0109 120.096 76.3069 120.176 75.6989 120.176C74.5469 120.176 73.7309 119.744 73.7309 118.144H77.8429C78.1789 118.144 78.3549 118.016 78.4189 117.696C78.4349 117.6 78.4989 117.296 78.4989 116.848ZM75.0429 115.392C75.9069 115.392 76.1789 116.064 76.1789 116.784H73.8109C73.8109 116.288 74.0189 115.392 75.0429 115.392ZM82.5048 115.952C82.9208 115.744 83.3848 115.664 83.8648 115.664C84.1528 115.664 84.4408 115.696 84.5688 115.712C84.9048 115.76 85.0168 115.648 85.0648 115.312L85.2408 114.16C85.2888 113.824 85.1448 113.632 84.8568 113.584C84.7608 113.568 84.6008 113.552 84.4248 113.552C83.5608 113.552 82.7608 113.904 82.2488 114.592L82.2168 114.176C82.1848 113.84 82.0568 113.696 81.7208 113.696H80.2168C79.8808 113.696 79.7368 113.84 79.7368 114.176V121.52C79.7368 121.856 79.8808 122 80.2168 122H82.0248C82.3608 122 82.5048 121.856 82.5048 121.52V115.952ZM86.943 119.264C86.943 120.672 86.943 122.192 89.647 122.192C89.919 122.192 90.559 122.16 91.231 121.936C91.551 121.824 91.663 121.616 91.599 121.28L91.471 120.48C91.423 120.144 91.247 120.08 90.943 120.128C90.943 120.128 90.751 120.16 90.543 120.16C90.079 120.16 89.743 119.936 89.743 119.232V115.568H91.343C91.679 115.568 91.839 115.424 91.855 115.088L91.935 114.176C91.951 113.84 91.823 113.696 91.487 113.696H89.759V112.176C89.759 111.84 89.615 111.712 89.279 111.744L87.471 111.888C87.135 111.92 86.991 112.08 86.991 112.416V113.712H86.079C85.743 113.712 85.599 113.856 85.599 114.192V115.088C85.599 115.424 85.743 115.568 86.079 115.568H86.943V119.264ZM100.477 114.176C100.477 113.84 100.333 113.696 99.9974 113.696H98.2054C97.8694 113.696 97.7254 113.84 97.7254 114.176V120.032C97.4374 120.096 97.1334 120.144 96.7494 120.144C96.1734 120.096 95.6454 119.856 95.6454 118.912V114.176C95.6454 113.84 95.5014 113.696 95.1654 113.696H93.3574C93.0214 113.696 92.8774 113.84 92.8774 114.176V119.072C92.8774 121.376 94.5414 122.128 96.3174 122.128C97.9654 122.128 99.4054 121.712 99.9974 121.536C100.349 121.424 100.477 121.232 100.477 120.896V114.176ZM104.739 115.952C105.155 115.744 105.619 115.664 106.099 115.664C106.387 115.664 106.675 115.696 106.803 115.712C107.139 115.76 107.251 115.648 107.299 115.312L107.475 114.16C107.523 113.824 107.379 113.632 107.091 113.584C106.995 113.568 106.835 113.552 106.659 113.552C105.795 113.552 104.995 113.904 104.483 114.592L104.451 114.176C104.419 113.84 104.291 113.696 103.955 113.696H102.451C102.115 113.696 101.971 113.84 101.971 114.176V121.52C101.971 121.856 102.115 122 102.451 122H104.259C104.595 122 104.739 121.856 104.739 121.52V115.952ZM114.927 116.72C114.927 114.272 113.455 113.552 111.679 113.552C110.623 113.552 109.551 113.776 108.815 114.032C108.495 114.144 108.367 114.352 108.447 114.672L108.671 115.568C108.751 115.888 108.943 115.968 109.215 115.904C109.551 115.824 110.271 115.68 110.991 115.68C111.711 115.68 112.175 115.856 112.175 116.752V117.28C111.679 117.136 111.151 117.088 110.623 117.088C109.071 117.088 107.615 117.744 107.615 119.696C107.615 121.744 109.423 122.24 111.311 122.24C112.687 122.24 113.871 121.952 114.447 121.76C114.783 121.648 114.927 121.44 114.927 121.104V116.72ZM110.255 119.632C110.271 118.864 110.799 118.576 111.407 118.576C111.663 118.576 111.935 118.624 112.175 118.72V120.432C111.935 120.512 111.647 120.544 111.391 120.544C110.815 120.544 110.255 120.352 110.255 119.632Z" fill="white"/>
<g clip-path="url(#clip0_630_449)">
<path d="M86.0869 44.0129L94.3509 49.7445C95.7297 51.1132 95.8072 53.4315 94.4285 54.7916L87.6983 61.4984C86.6298 62.5591 85.0097 62.8243 83.6568 62.1656L54.5991 47.9908C53.2461 47.3321 51.6261 47.6058 50.5575 48.658L45.9128 53.2689" stroke="#39B2C4" stroke-width="3" stroke-linecap="round" stroke-linejoin="round"/>
<path d="M93.0238 44.03C93.9631 40.822 93.334 37.751 91.1797 36.3395" stroke="#39B2C4" stroke-width="3" stroke-linecap="round" stroke-linejoin="round"/>
<path d="M91.1797 36.3395L59.149 14.2945C56.2105 12.3783 51.5571 14.2518 48.7393 18.4948C45.93 22.7293 46.0248 27.7251 48.9633 29.6413L80.994 51.6863C83.0966 53.055 86.0696 52.4904 88.629 50.5058" stroke="#39B2C4" stroke-width="3" stroke-linecap="round" stroke-linejoin="round"/>
<path d="M31.832 75.8015L47.2571 60.4889C48.8944 58.8635 48.2912 55.6299 45.9128 53.2689C43.5344 50.9079 40.277 50.309 38.6397 51.9344L23.2147 67.2555" stroke="#39B2C4" stroke-width="3" stroke-linecap="round" stroke-linejoin="round"/>
<path d="M28.5746 67.1529C29.2382 67.5122 29.8931 67.9998 30.4877 68.5901C32.8661 70.9511 33.4693 74.1847 31.832 75.8101" stroke="#39B2C4" stroke-width="2.5" stroke-linecap="round" stroke-linejoin="round"/>
<path d="M23.2147 67.2555C21.5774 68.8808 22.1806 72.1144 24.559 74.4755C26.9374 76.8365 30.1947 77.4354 31.832 75.81" stroke="#39B2C4" stroke-width="3" stroke-linecap="round" stroke-linejoin="round"/>
<path d="M96.781 41.4294L105.657 32.6183L107.94 30.3514C109.242 29.0596 109.242 26.9638 107.94 25.672C106.639 24.3803 104.528 24.3803 103.227 25.672L100.555 28.3239L99.0387 29.8295C98.2632 30.5994 97.0137 30.5994 96.2381 29.8295C95.4625 29.0596 95.4625 27.8192 96.2381 27.0493L97.7548 25.5437L103.951 19.393C105.252 18.1013 105.252 16.0055 103.951 14.7137C102.649 13.422 100.538 13.422 99.2369 14.7137L93.0411 20.8644L91.5244 22.37C90.7488 23.1399 89.4993 23.1399 88.7238 22.37C87.9482 21.6001 87.9482 20.3597 88.7238 19.5898L90.6196 17.7078L91.5589 16.7754C92.8601 15.4836 92.8601 13.3878 91.5589 12.096C90.2577 10.8043 88.1464 10.8043 86.8452 12.096L85.9059 13.0285L84.0101 14.9105C83.2345 15.6804 81.985 15.6804 81.2094 14.9105C80.4339 14.1406 80.4339 12.9002 81.2094 12.1303L82.7261 10.6247L86.6125 6.76658C87.9137 5.47485 87.9137 3.379 86.6125 2.08727C85.3113 0.795537 83.2 0.795537 81.8988 2.08727L78.3916 5.56895L68.9556 14.9361" stroke="#39B2C4" stroke-width="2.5" stroke-linecap="round" stroke-linejoin="round"/>
<path d="M94.1355 9.53825C95.4367 10.83 97.5479 10.83 98.8491 9.53825L99.2456 9.14474L100.762 7.63915L101.701 6.70671C103.003 5.41498 103.003 3.31912 101.701 2.02739C100.4 0.735661 98.289 0.735661 96.9878 2.02739L96.0485 2.95983L94.5319 4.46543L94.1355 4.85893C92.8342 6.15066 92.8342 8.24652 94.1355 9.53825V9.53825Z" stroke="#39B2C4" stroke-width="2.5" stroke-linecap="round" stroke-linejoin="round"/>
<path d="M84.0446 37.1522C82.8381 37.982 81.7006 39.1283 80.77 40.5398C77.9607 44.7743 78.0555 49.7701 80.994 51.6863" stroke="#39B2C4" stroke-width="2.5" stroke-linecap="round" stroke-linejoin="round"/>
</g>
<defs>
<clipPath id="clip0_630_449">
<rect width="89" height="78" fill="white" transform="translate(21)"/>
</clipPath>
</defs>
</svg>
