<svg width="130" height="163" viewBox="0 0 130 163" fill="none" xmlns="http://www.w3.org/2000/svg">
<path d="M19.9885 107.2C20.5965 107.2 21.2205 107.36 21.6685 107.472C21.9725 107.552 22.1805 107.456 22.2445 107.136L22.4845 106.08C22.5485 105.76 22.4205 105.568 22.0845 105.472C21.5085 105.312 20.7245 105.12 19.7805 105.12C17.0925 105.12 14.3885 106.416 14.3885 110.624C14.4045 115.024 16.8205 116.192 19.6685 116.192C20.4525 116.192 21.3645 116.08 21.9405 115.984C22.2765 115.92 22.4045 115.76 22.3885 115.424L22.3245 114.32C22.3085 113.984 22.1645 113.856 21.8285 113.888C21.5405 113.92 20.7725 114 20.2445 114C18.6285 114 17.3325 113.392 17.3325 110.576C17.3325 107.984 18.5005 107.2 19.9885 107.2ZM27.0228 116.192C29.6148 116.192 31.0068 115.04 31.0068 111.872C31.0068 108.672 29.6948 107.568 27.1028 107.568C24.6228 107.568 23.1988 108.704 23.1988 111.888C23.1988 115.072 24.5428 116.192 27.0228 116.192ZM27.1028 109.6C27.8068 109.6 28.3348 109.952 28.3348 111.888C28.3348 113.696 27.8068 114.176 27.0868 114.176C26.3988 114.176 25.8548 113.696 25.8548 111.888C25.8548 109.952 26.3988 109.6 27.1028 109.6ZM35.0204 109.952C35.4364 109.744 35.9004 109.664 36.3804 109.664C36.6684 109.664 36.9564 109.696 37.0844 109.712C37.4204 109.76 37.5324 109.648 37.5804 109.312L37.7564 108.16C37.8044 107.824 37.6604 107.632 37.3724 107.584C37.2764 107.568 37.1164 107.552 36.9404 107.552C36.0764 107.552 35.2764 107.904 34.7644 108.592L34.7324 108.176C34.7004 107.84 34.5724 107.696 34.2364 107.696H32.7324C32.3964 107.696 32.2524 107.84 32.2524 108.176V115.52C32.2524 115.856 32.3964 116 32.7324 116H34.5404C34.8764 116 35.0204 115.856 35.0204 115.52V109.952ZM45.577 110.848C45.577 109.056 44.633 107.568 42.073 107.568C39.257 107.568 38.105 109.52 38.105 111.648C38.105 115.088 39.929 116.208 42.377 116.208C43.257 116.208 44.185 116.032 44.841 115.856C45.177 115.76 45.337 115.568 45.305 115.232L45.193 114.256C45.161 113.92 44.985 113.84 44.665 113.936C44.089 114.096 43.385 114.176 42.777 114.176C41.625 114.176 40.809 113.744 40.809 112.144H44.921C45.257 112.144 45.433 112.016 45.497 111.696C45.513 111.6 45.577 111.296 45.577 110.848ZM42.121 109.392C42.985 109.392 43.257 110.064 43.257 110.784H40.889C40.889 110.288 41.097 109.392 42.121 109.392ZM52.6709 108.56C52.7189 108.24 52.6069 108.032 52.2869 107.92C51.9349 107.808 51.1829 107.552 49.9989 107.552C47.9189 107.552 46.5909 108.32 46.5909 110.192C46.5909 111.632 47.9349 112.192 49.1029 112.704C49.6629 112.96 50.2389 113.216 50.2389 113.648C50.2389 114.112 49.8709 114.192 49.4069 114.192C48.6869 114.192 47.5509 113.856 47.2469 113.76C46.9589 113.68 46.7669 113.76 46.7029 114.08L46.4789 115.12C46.4149 115.44 46.4949 115.648 46.8149 115.76C47.2789 115.92 48.2869 116.192 49.3589 116.192C51.7909 116.192 52.9109 115.184 52.9109 113.408C52.9109 112 51.5829 111.472 50.5589 111.072C49.9189 110.832 49.2629 110.592 49.2629 110.112C49.2629 109.712 49.6629 109.616 50.1269 109.616C50.7829 109.616 51.6949 109.904 51.9189 109.984C52.2229 110.096 52.3989 110.016 52.4629 109.696L52.6709 108.56ZM60.3364 113.28L59.0244 108.16C58.9444 107.84 58.7684 107.696 58.4324 107.696H56.6084C56.2724 107.696 56.1764 107.84 56.2724 108.16L58.5764 115.536C58.6724 115.856 58.8644 116 59.2004 116H61.4724C61.8084 116 62.0004 115.856 62.0964 115.536L64.4004 108.16C64.4964 107.84 64.4004 107.696 64.0644 107.696H62.2564C61.9204 107.696 61.7444 107.84 61.6644 108.16L60.3364 113.28ZM72.0204 110.72C72.0204 108.272 70.5484 107.552 68.7724 107.552C67.7164 107.552 66.6444 107.776 65.9084 108.032C65.5884 108.144 65.4604 108.352 65.5404 108.672L65.7644 109.568C65.8444 109.888 66.0364 109.968 66.3084 109.904C66.6444 109.824 67.3644 109.68 68.0844 109.68C68.8044 109.68 69.2684 109.856 69.2684 110.752V111.28C68.7724 111.136 68.2444 111.088 67.7164 111.088C66.1644 111.088 64.7084 111.744 64.7084 113.696C64.7084 115.744 66.5164 116.24 68.4044 116.24C69.7804 116.24 70.9644 115.952 71.5404 115.76C71.8764 115.648 72.0204 115.44 72.0204 115.104V110.72ZM67.3484 113.632C67.3644 112.864 67.8924 112.576 68.5004 112.576C68.7564 112.576 69.0284 112.624 69.2684 112.72V114.432C69.0284 114.512 68.7404 114.544 68.4844 114.544C67.9084 114.544 67.3484 114.352 67.3484 113.632ZM76.2704 109.952C76.6864 109.744 77.1504 109.664 77.6304 109.664C77.9184 109.664 78.2064 109.696 78.3344 109.712C78.6704 109.76 78.7824 109.648 78.8304 109.312L79.0064 108.16C79.0544 107.824 78.9104 107.632 78.6224 107.584C78.5264 107.568 78.3664 107.552 78.1904 107.552C77.3264 107.552 76.5264 107.904 76.0144 108.592L75.9824 108.176C75.9504 107.84 75.8224 107.696 75.4864 107.696H73.9824C73.6464 107.696 73.5024 107.84 73.5024 108.176V115.52C73.5024 115.856 73.6464 116 73.9824 116H75.7904C76.1264 116 76.2704 115.856 76.2704 115.52V109.952ZM82.6606 108.176C82.6606 107.84 82.5166 107.696 82.1806 107.696H80.3246C79.9886 107.696 79.8446 107.84 79.8446 108.176V115.52C79.8446 115.856 79.9886 116 80.3246 116H82.1806C82.5166 116 82.6606 115.856 82.6606 115.52V108.176ZM79.8446 106.368C79.8446 106.704 79.9886 106.848 80.3246 106.848H82.1806C82.5166 106.848 82.6606 106.704 82.6606 106.368V104.672C82.6606 104.336 82.5166 104.192 82.1806 104.192H80.3246C79.9886 104.192 79.8446 104.336 79.8446 104.672V106.368ZM90.8954 110.72C90.8954 108.272 89.4234 107.552 87.6474 107.552C86.5914 107.552 85.5194 107.776 84.7834 108.032C84.4634 108.144 84.3354 108.352 84.4154 108.672L84.6394 109.568C84.7194 109.888 84.9114 109.968 85.1834 109.904C85.5194 109.824 86.2394 109.68 86.9594 109.68C87.6794 109.68 88.1434 109.856 88.1434 110.752V111.28C87.6474 111.136 87.1194 111.088 86.5914 111.088C85.0394 111.088 83.5834 111.744 83.5834 113.696C83.5834 115.744 85.3914 116.24 87.2794 116.24C88.6554 116.24 89.8394 115.952 90.4154 115.76C90.7514 115.648 90.8954 115.44 90.8954 115.104V110.72ZM86.2234 113.632C86.2394 112.864 86.7674 112.576 87.3754 112.576C87.6314 112.576 87.9034 112.624 88.1434 112.72V114.432C87.9034 114.512 87.6154 114.544 87.3594 114.544C86.7834 114.544 86.2234 114.352 86.2234 113.632ZM99.8814 105.28C99.8814 104.944 99.7374 104.8 99.4014 104.8H97.5934C97.2574 104.8 97.1134 104.944 97.1134 105.28V107.696C96.7294 107.616 96.3454 107.584 96.0094 107.584C93.0174 107.584 92.1054 109.856 92.1054 112C92.1054 115.344 94.0414 116.16 96.1214 116.16C97.4654 116.16 98.6334 116 99.4334 115.776C99.7694 115.68 99.8814 115.488 99.8814 115.152V105.28ZM97.1134 114.096C96.8574 114.16 96.6174 114.192 96.4254 114.192C95.4814 114.192 94.9054 113.52 94.9054 112.016C94.9054 110.64 95.3854 109.536 96.3774 109.536C96.5854 109.536 96.8414 109.552 97.1134 109.616V114.096ZM108.192 110.72C108.192 108.272 106.72 107.552 104.944 107.552C103.888 107.552 102.816 107.776 102.08 108.032C101.76 108.144 101.632 108.352 101.712 108.672L101.936 109.568C102.016 109.888 102.208 109.968 102.48 109.904C102.816 109.824 103.536 109.68 104.256 109.68C104.976 109.68 105.44 109.856 105.44 110.752V111.28C104.944 111.136 104.416 111.088 103.888 111.088C102.336 111.088 100.88 111.744 100.88 113.696C100.88 115.744 102.688 116.24 104.576 116.24C105.952 116.24 107.136 115.952 107.712 115.76C108.048 115.648 108.192 115.44 108.192 115.104V110.72ZM103.52 113.632C103.536 112.864 104.064 112.576 104.672 112.576C104.928 112.576 105.2 112.624 105.44 112.72V114.432C105.2 114.512 104.912 114.544 104.656 114.544C104.08 114.544 103.52 114.352 103.52 113.632ZM115.53 108.56C115.578 108.24 115.466 108.032 115.146 107.92C114.794 107.808 114.042 107.552 112.858 107.552C110.778 107.552 109.45 108.32 109.45 110.192C109.45 111.632 110.794 112.192 111.962 112.704C112.522 112.96 113.098 113.216 113.098 113.648C113.098 114.112 112.73 114.192 112.266 114.192C111.546 114.192 110.41 113.856 110.106 113.76C109.818 113.68 109.626 113.76 109.562 114.08L109.338 115.12C109.274 115.44 109.354 115.648 109.674 115.76C110.138 115.92 111.146 116.192 112.218 116.192C114.65 116.192 115.77 115.184 115.77 113.408C115.77 112 114.442 111.472 113.418 111.072C112.778 110.832 112.122 110.592 112.122 110.112C112.122 109.712 112.522 109.616 112.986 109.616C113.642 109.616 114.554 109.904 114.778 109.984C115.082 110.096 115.258 110.016 115.322 109.696L115.53 108.56ZM10.6821 139.8C10.6821 140.136 10.8261 140.28 11.1621 140.28H12.9701C13.3061 140.28 13.4501 140.136 13.4501 139.8V137.096C13.8181 137.16 14.2021 137.192 14.5381 137.192C17.6581 137.192 18.5701 135.096 18.5701 132.744C18.5701 129.4 16.5861 128.568 14.5221 128.568C13.1141 128.568 11.7701 128.888 11.1941 129.064C10.8421 129.176 10.6821 129.368 10.6821 129.704V139.8ZM13.4501 130.712C13.7701 130.632 14.0741 130.616 14.3141 130.616C15.3221 130.616 15.7861 131.368 15.7861 132.728C15.7861 134.184 15.2741 135.096 14.1861 135.096C13.9621 135.096 13.7221 135.064 13.4501 135V130.712ZM26.5907 131.72C26.5907 129.272 25.1187 128.552 23.3427 128.552C22.2867 128.552 21.2147 128.776 20.4787 129.032C20.1587 129.144 20.0307 129.352 20.1107 129.672L20.3347 130.568C20.4147 130.888 20.6067 130.968 20.8787 130.904C21.2147 130.824 21.9347 130.68 22.6547 130.68C23.3747 130.68 23.8387 130.856 23.8387 131.752V132.28C23.3427 132.136 22.8147 132.088 22.2867 132.088C20.7347 132.088 19.2787 132.744 19.2787 134.696C19.2787 136.744 21.0867 137.24 22.9747 137.24C24.3507 137.24 25.5347 136.952 26.1107 136.76C26.4467 136.648 26.5907 136.44 26.5907 136.104V131.72ZM21.9187 134.632C21.9347 133.864 22.4627 133.576 23.0707 133.576C23.3267 133.576 23.5987 133.624 23.8387 133.72V135.432C23.5987 135.512 23.3107 135.544 23.0547 135.544C22.4787 135.544 21.9187 135.352 21.9187 134.632ZM30.8407 130.952C31.2567 130.744 31.7207 130.664 32.2007 130.664C32.4887 130.664 32.7767 130.696 32.9047 130.712C33.2407 130.76 33.3527 130.648 33.4007 130.312L33.5767 129.16C33.6247 128.824 33.4807 128.632 33.1927 128.584C33.0967 128.568 32.9367 128.552 32.7607 128.552C31.8967 128.552 31.0967 128.904 30.5847 129.592L30.5527 129.176C30.5207 128.84 30.3927 128.696 30.0567 128.696H28.5527C28.2167 128.696 28.0727 128.84 28.0727 129.176V136.52C28.0727 136.856 28.2167 137 28.5527 137H30.3607C30.6967 137 30.8407 136.856 30.8407 136.52V130.952ZM41.0282 131.72C41.0282 129.272 39.5562 128.552 37.7802 128.552C36.7242 128.552 35.6522 128.776 34.9162 129.032C34.5962 129.144 34.4682 129.352 34.5482 129.672L34.7722 130.568C34.8522 130.888 35.0442 130.968 35.3162 130.904C35.6522 130.824 36.3722 130.68 37.0922 130.68C37.8122 130.68 38.2762 130.856 38.2762 131.752V132.28C37.7802 132.136 37.2522 132.088 36.7242 132.088C35.1722 132.088 33.7162 132.744 33.7162 134.696C33.7162 136.744 35.5242 137.24 37.4122 137.24C38.7882 137.24 39.9722 136.952 40.5482 136.76C40.8842 136.648 41.0282 136.44 41.0282 136.104V131.72ZM36.3562 134.632C36.3722 133.864 36.9002 133.576 37.5082 133.576C37.7642 133.576 38.0362 133.624 38.2762 133.72V135.432C38.0362 135.512 37.7482 135.544 37.4922 135.544C36.9162 135.544 36.3562 135.352 36.3562 134.632ZM52.2469 131.72C52.2469 129.272 50.7749 128.552 48.9989 128.552C47.9429 128.552 46.8709 128.776 46.1349 129.032C45.8149 129.144 45.6869 129.352 45.7669 129.672L45.9909 130.568C46.0709 130.888 46.2629 130.968 46.5349 130.904C46.8709 130.824 47.5909 130.68 48.3109 130.68C49.0309 130.68 49.4949 130.856 49.4949 131.752V132.28C48.9989 132.136 48.4709 132.088 47.9429 132.088C46.3909 132.088 44.9349 132.744 44.9349 134.696C44.9349 136.744 46.7429 137.24 48.6309 137.24C50.0069 137.24 51.1909 136.952 51.7669 136.76C52.1029 136.648 52.2469 136.44 52.2469 136.104V131.72ZM47.5749 134.632C47.5909 133.864 48.1189 133.576 48.7269 133.576C48.9829 133.576 49.2549 133.624 49.4949 133.72V135.432C49.2549 135.512 48.9669 135.544 48.7109 135.544C48.1349 135.544 47.5749 135.352 47.5749 134.632ZM53.7289 136.52C53.7289 136.856 53.8729 137 54.2089 137H56.0009C56.3369 137 56.4809 136.856 56.4809 136.52V130.792C56.8329 130.632 57.1849 130.552 57.5689 130.552C58.0969 130.552 58.5289 130.776 58.5289 131.704V136.52C58.5289 136.856 58.6729 137 59.0089 137H60.7529C61.0889 137 61.2329 136.856 61.2329 136.52V131.48C61.2329 131.256 61.2169 131.032 61.1849 130.824C61.6169 130.632 62.0169 130.552 62.3689 130.552C62.8969 130.552 63.2809 130.84 63.2809 131.704V136.52C63.2809 136.856 63.4249 137 63.7609 137H65.5369C65.8729 137 66.0169 136.856 66.0169 136.52V131.48C66.0169 129.224 64.6409 128.536 62.9449 128.536C61.8409 128.536 60.9289 128.776 60.1929 129.272C59.6009 128.632 58.8009 128.536 57.9209 128.536C56.2409 128.536 54.6569 129.16 54.2089 129.336C53.8889 129.464 53.7289 129.688 53.7289 130.024V136.52ZM70.2462 126.28C70.2462 125.944 70.1022 125.8 69.7662 125.8H67.9742C67.6382 125.8 67.4942 125.944 67.4942 126.28V136.088C67.4942 136.424 67.6382 136.632 67.9582 136.728C68.5502 136.904 69.8782 137.192 71.1742 137.192C74.2462 137.192 75.4462 135.432 75.4462 132.472C75.4462 129.544 73.9262 128.568 71.9742 128.568C71.4142 128.568 70.8222 128.648 70.2462 128.792V126.28ZM70.2462 130.808C70.6302 130.664 70.9662 130.616 71.2862 130.616C72.0542 130.616 72.6142 131.16 72.6142 132.792C72.6142 134.104 72.2462 135.112 70.8542 135.112C70.6302 135.112 70.4382 135.08 70.2462 135.048V130.808ZM79.4497 129.176C79.4497 128.84 79.3057 128.696 78.9697 128.696H77.1137C76.7777 128.696 76.6337 128.84 76.6337 129.176V136.52C76.6337 136.856 76.7777 137 77.1137 137H78.9697C79.3057 137 79.4497 136.856 79.4497 136.52V129.176ZM76.6337 127.368C76.6337 127.704 76.7777 127.848 77.1137 127.848H78.9697C79.3057 127.848 79.4497 127.704 79.4497 127.368V125.672C79.4497 125.336 79.3057 125.192 78.9697 125.192H77.1137C76.7777 125.192 76.6337 125.336 76.6337 125.672V127.368ZM88.1004 131.848C88.1004 130.056 87.1564 128.568 84.5964 128.568C81.7804 128.568 80.6284 130.52 80.6284 132.648C80.6284 136.088 82.4524 137.208 84.9004 137.208C85.7804 137.208 86.7084 137.032 87.3644 136.856C87.7004 136.76 87.8604 136.568 87.8284 136.232L87.7164 135.256C87.6844 134.92 87.5084 134.84 87.1884 134.936C86.6124 135.096 85.9084 135.176 85.3004 135.176C84.1484 135.176 83.3324 134.744 83.3324 133.144H87.4444C87.7804 133.144 87.9564 133.016 88.0204 132.696C88.0364 132.6 88.1004 132.296 88.1004 131.848ZM84.6444 130.392C85.5084 130.392 85.7804 131.064 85.7804 131.784H83.4124C83.4124 131.288 83.6204 130.392 84.6444 130.392ZM89.3383 136.52C89.3383 136.856 89.4823 137 89.8183 137H91.6103C91.9463 137 92.0903 136.856 92.0903 136.52V130.744C92.4423 130.584 92.9063 130.504 93.2903 130.504C93.8183 130.504 94.2183 130.76 94.2183 131.672V136.52C94.2183 136.856 94.3623 137 94.6983 137H96.4903C96.8263 137 96.9703 136.856 96.9703 136.52V131.48C96.9703 129 95.3543 128.536 93.6263 128.536C91.9143 128.536 90.2503 129.112 89.8023 129.288C89.4823 129.416 89.3383 129.624 89.3383 129.96V136.52ZM99.2633 134.264C99.2633 135.672 99.2633 137.192 101.967 137.192C102.239 137.192 102.879 137.16 103.551 136.936C103.871 136.824 103.983 136.616 103.919 136.28L103.791 135.48C103.743 135.144 103.567 135.08 103.263 135.128C103.263 135.128 103.071 135.16 102.863 135.16C102.399 135.16 102.063 134.936 102.063 134.232V130.568H103.663C103.999 130.568 104.159 130.424 104.175 130.088L104.255 129.176C104.271 128.84 104.143 128.696 103.807 128.696H102.079V127.176C102.079 126.84 101.935 126.712 101.599 126.744L99.7913 126.888C99.4553 126.92 99.3113 127.08 99.3113 127.416V128.712H98.3993C98.0633 128.712 97.9193 128.856 97.9193 129.192V130.088C97.9193 130.424 98.0633 130.568 98.3993 130.568H99.2633V134.264ZM112.335 131.848C112.335 130.056 111.391 128.568 108.831 128.568C106.015 128.568 104.863 130.52 104.863 132.648C104.863 136.088 106.687 137.208 109.135 137.208C110.015 137.208 110.943 137.032 111.599 136.856C111.935 136.76 112.095 136.568 112.063 136.232L111.951 135.256C111.919 134.92 111.743 134.84 111.423 134.936C110.847 135.096 110.143 135.176 109.535 135.176C108.383 135.176 107.567 134.744 107.567 133.144H111.679C112.015 133.144 112.191 133.016 112.255 132.696C112.271 132.6 112.335 132.296 112.335 131.848ZM108.879 130.392C109.743 130.392 110.015 131.064 110.015 131.784H107.647C107.647 131.288 107.855 130.392 108.879 130.392ZM119.429 129.56C119.477 129.24 119.365 129.032 119.045 128.92C118.693 128.808 117.941 128.552 116.757 128.552C114.677 128.552 113.349 129.32 113.349 131.192C113.349 132.632 114.693 133.192 115.861 133.704C116.421 133.96 116.997 134.216 116.997 134.648C116.997 135.112 116.629 135.192 116.165 135.192C115.445 135.192 114.309 134.856 114.005 134.76C113.717 134.68 113.525 134.76 113.461 135.08L113.237 136.12C113.173 136.44 113.253 136.648 113.573 136.76C114.037 136.92 115.045 137.192 116.117 137.192C118.549 137.192 119.669 136.184 119.669 134.408C119.669 133 118.341 132.472 117.317 132.072C116.677 131.832 116.021 131.592 116.021 131.112C116.021 130.712 116.421 130.616 116.885 130.616C117.541 130.616 118.453 130.904 118.677 130.984C118.981 131.096 119.157 131.016 119.221 130.696L119.429 129.56ZM20.5258 157.52C20.5258 157.856 20.6698 158 21.0058 158H22.7978C23.1338 158 23.2778 157.856 23.2778 157.52V151.792C23.6298 151.632 23.9818 151.552 24.3658 151.552C24.8938 151.552 25.3258 151.776 25.3258 152.704V157.52C25.3258 157.856 25.4698 158 25.8058 158H27.5498C27.8858 158 28.0298 157.856 28.0298 157.52V152.48C28.0298 152.256 28.0138 152.032 27.9818 151.824C28.4138 151.632 28.8138 151.552 29.1658 151.552C29.6938 151.552 30.0778 151.84 30.0778 152.704V157.52C30.0778 157.856 30.2218 158 30.5578 158H32.3338C32.6698 158 32.8138 157.856 32.8138 157.52V152.48C32.8138 150.224 31.4378 149.536 29.7418 149.536C28.6378 149.536 27.7258 149.776 26.9898 150.272C26.3978 149.632 25.5978 149.536 24.7178 149.536C23.0378 149.536 21.4538 150.16 21.0058 150.336C20.6858 150.464 20.5258 150.688 20.5258 151.024V157.52ZM41.0751 152.72C41.0751 150.272 39.6031 149.552 37.8271 149.552C36.7711 149.552 35.6991 149.776 34.9631 150.032C34.6431 150.144 34.5151 150.352 34.5951 150.672L34.8191 151.568C34.8991 151.888 35.0911 151.968 35.3631 151.904C35.6991 151.824 36.4191 151.68 37.1391 151.68C37.8591 151.68 38.3231 151.856 38.3231 152.752V153.28C37.8271 153.136 37.2991 153.088 36.7711 153.088C35.2191 153.088 33.7631 153.744 33.7631 155.696C33.7631 157.744 35.5711 158.24 37.4591 158.24C38.8351 158.24 40.0191 157.952 40.5951 157.76C40.9311 157.648 41.0751 157.44 41.0751 157.104V152.72ZM36.4031 155.632C36.4191 154.864 36.9471 154.576 37.5551 154.576C37.8111 154.576 38.0831 154.624 38.3231 154.72V156.432C38.0831 156.512 37.7951 156.544 37.5391 156.544C36.9631 156.544 36.4031 156.352 36.4031 155.632ZM45.3091 150.176C45.3091 149.84 45.1651 149.696 44.8291 149.696H42.9731C42.6371 149.696 42.4931 149.84 42.4931 150.176V157.52C42.4931 157.856 42.6371 158 42.9731 158H44.8291C45.1651 158 45.3091 157.856 45.3091 157.52V150.176ZM42.4931 148.368C42.4931 148.704 42.6371 148.848 42.9731 148.848H44.8291C45.1651 148.848 45.3091 148.704 45.3091 148.368V146.672C45.3091 146.336 45.1651 146.192 44.8291 146.192H42.9731C42.6371 146.192 42.4931 146.336 42.4931 146.672V148.368ZM52.6318 150.56C52.6798 150.24 52.5678 150.032 52.2478 149.92C51.8958 149.808 51.1438 149.552 49.9598 149.552C47.8798 149.552 46.5518 150.32 46.5518 152.192C46.5518 153.632 47.8958 154.192 49.0638 154.704C49.6238 154.96 50.1998 155.216 50.1998 155.648C50.1998 156.112 49.8318 156.192 49.3678 156.192C48.6478 156.192 47.5118 155.856 47.2078 155.76C46.9198 155.68 46.7278 155.76 46.6638 156.08L46.4398 157.12C46.3758 157.44 46.4558 157.648 46.7758 157.76C47.2398 157.92 48.2478 158.192 49.3198 158.192C51.7518 158.192 52.8718 157.184 52.8718 155.408C52.8718 154 51.5438 153.472 50.5198 153.072C49.8798 152.832 49.2238 152.592 49.2238 152.112C49.2238 151.712 49.6238 151.616 50.0878 151.616C50.7438 151.616 51.6558 151.904 51.8798 151.984C52.1838 152.096 52.3598 152.016 52.4238 151.696L52.6318 150.56ZM59.7618 147.28C59.7618 146.944 59.6178 146.8 59.2818 146.8H57.4898C57.1538 146.8 57.0098 146.944 57.0098 147.28V157.088C57.0098 157.424 57.1538 157.632 57.4738 157.728C58.0658 157.904 59.3938 158.192 60.6898 158.192C63.7618 158.192 64.9618 156.432 64.9618 153.472C64.9618 150.544 63.4418 149.568 61.4898 149.568C60.9298 149.568 60.3378 149.648 59.7618 149.792V147.28ZM59.7618 151.808C60.1458 151.664 60.4818 151.616 60.8018 151.616C61.5698 151.616 62.1298 152.16 62.1298 153.792C62.1298 155.104 61.7618 156.112 60.3698 156.112C60.1458 156.112 59.9538 156.08 59.7618 156.048V151.808ZM69.7493 158.192C72.3413 158.192 73.7333 157.04 73.7333 153.872C73.7333 150.672 72.4213 149.568 69.8293 149.568C67.3493 149.568 65.9253 150.704 65.9253 153.888C65.9253 157.072 67.2693 158.192 69.7493 158.192ZM69.8293 151.6C70.5333 151.6 71.0613 151.952 71.0613 153.888C71.0613 155.696 70.5333 156.176 69.8133 156.176C69.1253 156.176 68.5813 155.696 68.5813 153.888C68.5813 151.952 69.1253 151.6 69.8293 151.6ZM74.9789 157.52C74.9789 157.856 75.1229 158 75.4589 158H77.2509C77.5869 158 77.7309 157.856 77.7309 157.52V151.744C78.0829 151.584 78.5469 151.504 78.9309 151.504C79.4589 151.504 79.8589 151.76 79.8589 152.672V157.52C79.8589 157.856 80.0029 158 80.3389 158H82.1309C82.4669 158 82.6109 157.856 82.6109 157.52V152.48C82.6109 150 80.9949 149.536 79.2669 149.536C77.5549 149.536 75.8909 150.112 75.4429 150.288C75.1229 150.416 74.9789 150.624 74.9789 150.96V157.52ZM86.8559 150.176C86.8559 149.84 86.7119 149.696 86.3759 149.696H84.5199C84.1839 149.696 84.0399 149.84 84.0399 150.176V157.52C84.0399 157.856 84.1839 158 84.5199 158H86.3759C86.7119 158 86.8559 157.856 86.8559 157.52V150.176ZM84.0399 148.368C84.0399 148.704 84.1839 148.848 84.5199 148.848H86.3759C86.7119 148.848 86.8559 148.704 86.8559 148.368V146.672C86.8559 146.336 86.7119 146.192 86.3759 146.192H84.5199C84.1839 146.192 84.0399 146.336 84.0399 146.672V148.368ZM89.1227 155.264C89.1227 156.672 89.1227 158.192 91.8267 158.192C92.0987 158.192 92.7387 158.16 93.4107 157.936C93.7307 157.824 93.8427 157.616 93.7787 157.28L93.6507 156.48C93.6027 156.144 93.4267 156.08 93.1227 156.128C93.1227 156.128 92.9307 156.16 92.7227 156.16C92.2587 156.16 91.9227 155.936 91.9227 155.232V151.568H93.5227C93.8587 151.568 94.0187 151.424 94.0347 151.088L94.1147 150.176C94.1307 149.84 94.0027 149.696 93.6667 149.696H91.9387V148.176C91.9387 147.84 91.7947 147.712 91.4587 147.744L89.6507 147.888C89.3147 147.92 89.1707 148.08 89.1707 148.416V149.712H88.2587C87.9227 149.712 87.7787 149.856 87.7787 150.192V151.088C87.7787 151.424 87.9227 151.568 88.2587 151.568H89.1227V155.264ZM98.5462 158.192C101.138 158.192 102.53 157.04 102.53 153.872C102.53 150.672 101.218 149.568 98.6262 149.568C96.1462 149.568 94.7222 150.704 94.7222 153.888C94.7222 157.072 96.0662 158.192 98.5462 158.192ZM98.6262 151.6C99.3302 151.6 99.8582 151.952 99.8582 153.888C99.8582 155.696 99.3302 156.176 98.6102 156.176C97.9222 156.176 97.3782 155.696 97.3782 153.888C97.3782 151.952 97.9222 151.6 98.6262 151.6ZM109.585 150.56C109.633 150.24 109.521 150.032 109.201 149.92C108.849 149.808 108.097 149.552 106.913 149.552C104.833 149.552 103.505 150.32 103.505 152.192C103.505 153.632 104.849 154.192 106.017 154.704C106.577 154.96 107.153 155.216 107.153 155.648C107.153 156.112 106.785 156.192 106.321 156.192C105.601 156.192 104.465 155.856 104.161 155.76C103.873 155.68 103.681 155.76 103.617 156.08L103.393 157.12C103.329 157.44 103.409 157.648 103.729 157.76C104.193 157.92 105.201 158.192 106.273 158.192C108.705 158.192 109.825 157.184 109.825 155.408C109.825 154 108.497 153.472 107.473 153.072C106.833 152.832 106.177 152.592 106.177 152.112C106.177 151.712 106.577 151.616 107.041 151.616C107.697 151.616 108.609 151.904 108.833 151.984C109.137 152.096 109.313 152.016 109.377 151.696L109.585 150.56Z" fill="white"/>
<g clip-path="url(#clip0_630_448)">
<path d="M53.98 39.11C56.2333 39.11 58.06 37.2833 58.06 35.03C58.06 32.7767 56.2333 30.95 53.98 30.95C51.7267 30.95 49.9 32.7767 49.9 35.03C49.9 37.2833 51.7267 39.11 53.98 39.11Z" fill="#39B2C4"/>
<path d="M85.0601 47.91V19.71" stroke="#39B2C4" stroke-width="3" stroke-linecap="round" stroke-linejoin="round"/>
<path d="M30.36 19.71V55.55C30.36 60.87 42.6 65.18 57.71 65.18C70.73 65.18 81.63 61.98 84.39 57.69" stroke="#39B2C4" stroke-width="3" stroke-linecap="round" stroke-linejoin="round"/>
<path d="M90.41 33.17C96.58 37.81 100.65 43.08 100.78 47.32C100.98 54.38 90.17 55.93 76.64 50.79C66.6 46.98 57.88 40.55 53.97 34.6" stroke="#39B2C4" stroke-width="3" stroke-linecap="round" stroke-linejoin="round"/>
<path d="M49.14 24.04C35.51 22.7 25.5 18.25 25.5 12.97C25.5 6.64 39.92 1.5 57.71 1.5C75.5 1.5 89.92 6.64 89.92 12.97C89.92 16.7 84.92 20.02 77.18 22.11" stroke="#39B2C4" stroke-width="3" stroke-linecap="round" stroke-linejoin="round"/>
<path d="M81.76 12.26C81.76 13.65 79.56 15.04 75.84 15.89C71.94 16.79 71.54 21.12 71.45 22.5C71.31 24.64 71.37 26.98 71.74 28.81C71.78 28.99 71.81 29.19 71.85 29.36L72.35 31.33C72.99 33.86 71.4 36.28 68.8 36.47C65.95 36.68 63.85 33.99 64.64 31.32L64.66 31.22C66.35 25.61 62.56 26.4 60.47 26.28C55.69 25.99 54.73 23.41 54.09 20.88C53.63 19.08 52.27 17.66 50.42 17.52C40.71 16.81 33.68 14.72 33.68 12.25" stroke="#39B2C4" stroke-width="2.5" stroke-linecap="round" stroke-linejoin="round"/>
</g>
<defs>
<clipPath id="clip0_630_448">
<rect width="78.28" height="66.68" fill="white" transform="translate(24)"/>
</clipPath>
</defs>
</svg>
